<svg xmlns="http://www.w3.org/2000/svg" width="80" height="80" viewBox="0 0 80 80" fill="none"><path d="M55 17.3052C56.1 17.3052 57 16.388 57 15.267V7.11445C57 3.7515 54.3 1 51 1H29C25.7 1 23 3.7515 23 7.11445V15.267C23 16.388 23.9 17.3052 25 17.3052H30.4V25.0909H25C23.9 25.0909 23 26.0081 23 27.1291V61.6757C23 71.2346 30.62 79 40 79C49.38 79 57 71.2346 57 61.6757V27.1291C57 26.0081 56.1 25.0909 55 25.0909H48.8V17.3052H55ZM27 7.11445C27 5.99347 27.9 5.0763 29 5.0763H51C52.1 5.0763 53 5.99347 53 7.11445V13.2289H27V7.11445ZM40 74.9441C32.84 74.9441 27 68.9927 27 61.6961V53.8492H53V61.6961C53 68.9927 47.16 74.9441 40 74.9441ZM53 49.7525H27V29.1672H53V49.7525ZM44.8 25.0909H34.4V17.3052H44.8V25.0909Z" fill="white"></path></svg>